<svg width="1000" height="1000" viewBox="0 0 1000 1000" fill="none" xmlns="http://www.w3.org/2000/svg">
<path d="M216.851 682.088C219.97 665.418 226.812 649.831 236.778 636.69C246.744 623.549 259.531 613.254 274.019 606.705C288.507 600.157 304.256 597.556 319.887 599.128C335.518 600.701 350.555 606.399 363.683 615.725L421.997 657.088C455.962 645.264 492.492 645.264 526.458 657.088C562.206 669.206 597.353 683.315 631.758 699.36C779.849 632.543 883.471 491.183 883.471 328.004C883.471 243.006 883.471 237.097 877.598 216.643C820.543 -71.9867 61.6274 -71.9868 5.83096 215.28C-2.13995 235.734 0.377177 248.006 0.377177 326.641C2.5314 401.799 23.9123 474.831 62.1354 537.592C100.359 600.354 153.921 650.379 216.851 682.088ZM441.295 104.373C635.534 104.373 781.108 180.28 781.108 248.461C781.108 316.641 635.534 392.548 441.295 392.548C247.056 392.548 101.482 318.459 101.482 248.461C101.482 217.552 131.688 184.826 182.869 157.554L195.874 127.1C203.111 110.535 214.502 96.5094 228.744 86.6236C242.987 76.7378 259.509 71.3903 276.423 71.1919C302.014 71.1919 313.341 80.2826 367.459 108.009C390.952 105.737 415.704 104.373 441.295 104.373Z" fill="#FF6A00"/>
<path d="M234.047 147.099L198.388 230.734C194.13 240.057 193.233 250.764 195.87 260.766C198.508 270.767 204.491 279.345 212.651 284.824C268.019 319.292 332.124 333.63 395.563 325.732C403.459 324.365 410.908 320.855 417.216 315.531C423.524 310.206 428.487 303.239 431.642 295.278L445.486 262.551C451.4 249.184 452.301 233.853 447.998 219.782C443.695 205.711 434.523 193.995 422.413 187.099L296.556 121.645C290.933 118.707 284.818 117.035 278.582 116.732C272.345 116.428 266.117 117.498 260.273 119.877C254.43 122.257 249.092 125.896 244.585 130.575C240.077 135.255 236.492 140.876 234.047 147.099Z" fill="#FF6A00"/>
<path d="M559.18 227.554L601.132 222.554C609.287 221.357 616.685 216.745 621.739 209.708C626.793 202.67 629.101 193.768 628.168 184.908C627.235 176.049 623.136 167.938 616.749 162.315C610.361 156.692 602.195 154.005 594 154.828L554.565 159.374C546.22 160.037 538.46 164.264 532.992 171.126C527.524 177.988 524.796 186.923 525.408 195.964C526.02 205.005 529.922 213.413 536.255 219.337C542.589 225.261 550.835 228.217 559.18 227.554Z" fill="#FF6A00"/>
<path d="M530.658 325.731C568.835 332.095 572.61 333.004 574.708 333.004C583.053 333.607 591.277 330.593 597.571 324.626C603.865 318.659 607.713 310.228 608.27 301.186C608.826 292.145 606.044 283.235 600.537 276.415C595.03 269.596 587.248 265.426 578.903 264.824L539.468 258.46C531.531 257.797 523.657 260.418 517.433 265.795C511.209 271.172 507.097 278.906 505.927 287.437C504.756 295.968 506.614 304.663 511.125 311.769C515.637 318.875 522.467 323.864 530.238 325.731H530.658Z" fill="#FF6A00"/>
<path d="M943.044 860.72C965.046 832.845 984.047 802.346 999.68 769.813C1000.11 768.024 1000.11 766.148 999.68 764.359C998.011 761.789 995.868 759.622 993.387 757.995C988.534 754.637 982.653 753.493 977.026 754.814C974.405 755.36 971.953 756.61 969.894 758.45C799.987 901.629 684.199 785.722 508.42 727.541C493.283 722.007 477.183 720.277 461.338 722.482C445.493 724.687 430.318 730.77 416.964 740.268L329.284 671.634C325.698 668.472 321.542 666.157 317.082 664.839C312.622 663.521 307.957 663.229 303.387 663.981C298.816 664.733 294.441 666.512 290.543 669.205C286.645 671.898 283.311 675.444 280.753 679.617C278.196 683.789 276.472 688.495 275.693 693.432C274.914 698.369 275.097 703.428 276.23 708.284C277.363 713.14 279.422 717.685 282.273 721.628C285.124 725.571 288.705 728.824 292.785 731.178L382.143 794.813C380.275 817.638 384.191 840.583 393.471 861.175C444.233 979.354 640.149 1022.08 758.035 989.354C830.553 968.371 895.226 923.405 943.044 860.72Z" fill="#FF6A00"/>
</svg>
